<svg xmlns="http://www.w3.org/2000/svg" width="240" height="240" fill="none"><g clip-path="url(#a)"><path fill="#fff" d="M0 0h240v240H0z"/><g clip-path="url(#b)"><path fill="#fff" d="M0 0h240v240H0z"/><path fill="#000" d="M0 0h240v240H0z"/></g><g fill="#fff" clip-path="url(#c)"><path d="m101.278 126.517-.062-15.252 14.565-5.417-14.668-4.816-.307-15.028-8.898 12.125-14.555-4.499 8.45 12.728-8.248 12.75 14.365-4.773 9.358 12.182Z"/><path d="M103.097 142.549h26.088l32.697-36.252L129.027 70h-25.836l30.727 36.243-30.821 36.306ZM45.002 162.063c0-4.711 3.973-9.344 9.402-9.344 3.698 0 7.849 4.18 7.849 4.18l-4.497 2.623s-.742-1.967-3.515-1.967c-2.819 0-4.477 2.32-4.497 4.426-.022 2.354 1.904 4.426 4.333 4.426 1.907 0 3.925-2.049 3.925-2.049l3.842 2.787s-2.875 3.524-7.685 3.524c-4.82 0-9.157-2.913-9.157-8.606Z"/><path fill-rule="evenodd" d="M73.037 152.957c-5.057 0-9.149 4.05-9.149 9.03 0 4.979 4.092 9.013 9.15 9.013 5.056 0 9.165-4.034 9.165-9.013 0-4.98-4.109-9.03-9.166-9.03Zm0 4.515c2.53 0 4.583 2.025 4.583 4.515 0 2.489-2.054 4.498-4.583 4.498-2.528 0-4.566-2.009-4.566-4.498 0-2.49 2.038-4.515 4.566-4.515Zm12.603-4.26v16.879h4.407v-9.122l7.272 9.122h4.344v-16.879H97.24v9.864l-7.193-9.864H85.64Zm19.619 0 5.951 16.879h6.556l5.951-16.879h-4.821l-4.408 13.401-4.407-13.401h-4.822Zm21.625 0v16.879h13.541v-3.893h-9.134v-2.823h8.211v-3.446h-8.211v-2.697h9.134v-4.02h-13.541Zm54.573 0v16.879h13.541v-3.893h-9.134v-2.823h8.211v-3.446h-8.211v-2.697h9.134v-4.02h-13.541Zm-36.052.32v16.638h3.914v-6.556h2.244L155 170.17h5.044l-3.405-7.115c4.427-2.661 3.551-8.231-1.384-9.523h-9.85Zm3.835 4.02h4.519c1.57 0 1.468 2.44 0 2.44h-4.519v-2.44Z" clip-rule="evenodd"/><path d="M162.396 167.84c.174 1.043 4.276 3.014 8.325 3.014 3.718 0 6.706-1.79 6.706-5.342 0-4.369-5.087-5.381-5.087-5.381s-4.227-.059-4.336-2.028c-.051-.927 1.236-1.449 2.37-1.449 1.857 0 3.931 1.855 3.931 1.855l2.949-3.188s-3.731-2.956-6.88-2.956c-3.007 0-7.284 1.974-7.284 6.086 0 3.498 4.951 5.107 4.951 5.107s5.224.557 5.224 2.195c0 1.115-1.895 1.45-3.006 1.45-2.7 0-4.972-2.377-4.972-2.377l-2.891 3.014Z"/></g></g><defs><clipPath id="a"><path fill="#fff" d="M0 0h240v240H0z"/></clipPath><clipPath id="b"><path fill="#fff" d="M0 0h240v240H0z"/></clipPath><clipPath id="c"><path fill="#fff" d="M45 70h150v101H45z"/></clipPath></defs></svg>