<svg xmlns="http://www.w3.org/2000/svg" width="240" height="240" fill="none"><g clip-path="url(#a)"><path fill="#fff" d="M0 0h240v240H0z"/><g clip-path="url(#b)"><path fill="#fff" d="M0 0h240v240H0z"/><path fill="#000" d="M0 0h240v240H0z"/><g clip-path="url(#c)"><path fill="#fff" d="M185.865 97H53.72c-.95 0-1.72.747-1.72 1.67V143h8.844v-37.606h117.321V143H187V98.102c-.002-.609-.509-1.102-1.135-1.102Z"/><path fill="#fff" d="m88.808 133.335 3.988.011-.01 3.409c0 .17-.081.331-.224.428-1.3.894-2.796 1.345-4.453 1.341-4.192-.011-7.344-3.105-7.333-7.197.01-4.024 3.165-7.168 7.18-7.158 1.943.005 3.797.775 5.225 2.17.145.141.381.138.522-.007l2.817-2.879a.347.347 0 0 0-.01-.498c-2.213-2.093-5.235-3.252-8.51-3.261-3.459-.01-6.608 1.186-8.865 3.363-2.215 2.137-3.44 5.069-3.449 8.256-.019 6.642 5.273 11.666 12.312 11.685 3.987.011 7.557-1.562 9.792-4.316.052-.181.078-.368.08-.557l.025-8.89a.362.362 0 0 0-.364-.356l-8.712-.023a.36.36 0 0 0-.365.354l-.011 3.766c0 .199.163.359.365.359ZM112.379 119.692c-6.927 0-12.15 5.009-12.15 11.652 0 6.642 5.223 11.652 12.15 11.652 6.927 0 12.15-5.009 12.15-11.652 0-6.642-5.223-11.652-12.15-11.652Zm0 18.83c-3.96 0-7.062-3.152-7.062-7.176 0-4.025 3.102-7.177 7.062-7.177 3.959 0 7.062 3.152 7.062 7.177 0 4.022-3.103 7.176-7.062 7.176ZM133.336 120.222l-9.742 22.09a.266.266 0 0 0 .25.37h4.692a.363.363 0 0 0 .335-.216l1.99-4.54a.182.182 0 0 1 .167-.108h8.351c.072 0 .139.043.167.108l1.99 4.54a.363.363 0 0 0 .335.216h4.552c.262 0 .439-.26.336-.495l-9.688-21.967a.368.368 0 0 0-.335-.215h-3.068a.365.365 0 0 0-.332.217Zm4.033 13.122h-4.362c-.066 0-.11-.065-.085-.123l2.182-4.93c.031-.071.136-.071.168 0l2.182 4.93c.025.057-.019.123-.085.123ZM153.752 138.208v-17.847a.36.36 0 0 0-.365-.355h-4.359a.36.36 0 0 0-.365.355v21.967a.36.36 0 0 0 .365.354h13.885a.36.36 0 0 0 .365-.354v-3.943a.178.178 0 0 0-.182-.177h-9.344ZM172.551 115.516a4.51 4.51 0 0 0-4.504-4.505 4.509 4.509 0 0 0-4.505 4.505 4.51 4.51 0 0 0 4.505 4.505 4.511 4.511 0 0 0 4.504-4.505Z"/><path fill="#000" d="M55.91 137.781v.734h.565c.192 0 .289-.029.355-.089a.382.382 0 0 0 0-.558c-.066-.06-.162-.089-.355-.089l-.566.002Zm.576-.09c.198 0 .319.034.4.1a.451.451 0 0 1 .166.358.453.453 0 0 1-.166.357c-.082.065-.202.1-.4.1h-.025l.814.99h-.111l-.814-.99h-.44v.99h-.1v-1.903l.676-.002Zm-.066 2.615c.925 0 1.68-.74 1.68-1.65 0-.909-.755-1.65-1.68-1.65-.924 0-1.678.739-1.678 1.65 0 .909.754 1.65 1.678 1.65Zm0-3.39c.977 0 1.77.78 1.77 1.74s-.793 1.739-1.77 1.739c-.976 0-1.77-.779-1.77-1.739 0-.959.796-1.74 1.77-1.74Z"/></g></g></g><defs><clipPath id="a"><path fill="#fff" d="M0 0h240v240H0z"/></clipPath><clipPath id="b"><path fill="#fff" d="M0 0h240v240H0z"/></clipPath><clipPath id="c"><path fill="#fff" d="M52 97h135v46H52z"/></clipPath></defs></svg>