<svg xmlns="http://www.w3.org/2000/svg" width="240" height="240" fill="none"><g clip-path="url(#a)"><path fill="#fff" d="M0 0h240v240H0z"/><g clip-path="url(#b)"><path fill="#fff" d="M0 0h240v240H0z"/><path fill="#000" d="M0 0h240v240H0z"/><g clip-path="url(#c)"><path fill="#fff" d="M83.334 108.001c-.89-8.009.548-21.726 7.932-22.655 5.892-.74 12.18 7.855 14.103 13.835 1.051 3.255 1.805 7.061 2.174 11.408.682 8.216-.396 12.635-.863 14.926-.62 3.048-2.928 7.305-3.943 8.234-1.06.965-4.833.866-9.18-3.581-4.806-4.924-9.522-15.845-10.223-22.167Z"/><path fill="#fff" d="M88.66 128.554c2.291-.108 4.402.415 6.576 1.037 3.18.92 6.252 2.056 7.465 3.057 1.257 1.038-2.048 4.465-12.675 8.406-8.021 2.967-18.693 2.471-18.881-1.443-.063-1.335 1.59-4.6 8.758-8.261 2.659-1.362 5.38-2.634 8.758-2.796Z"/><path fill="#fff" d="M88.068 141.721a2.364 2.364 0 0 1 0-.505c.027-.361.108-.776.243-1.254.781-2.678 3.943-7.539 5.452-8.134.961-.379 3.063-1.209 5.91.072 1.824.821 2.704 1.371 2.74 2.083.018.433-.718 1.146-.997 1.434-1.266 1.344-3.62 3.86-5.785 5.312-2.587 1.732-5.255 2.796-6.377 2.426-.692-.234-1.087-.685-1.168-1.425l-.018-.009Z"/><path fill="#fff" d="M102.88 133.622c-.458.487-1.015.722-1.931.515-1.248-.289-2.461-1.011-2.587-2.535a56.813 56.813 0 0 1-.161-3.706v-.929c-.01-2.183.646-4.753.907-5.646 1.105-3.914 5.398-10.2 7.913-13.428 7.115-9.145 12.81-13.636 14.256-12.239 1.859 1.804-3.306 14.232-12.854 29.428 0 0-3.755 6.656-5.534 8.559l-.009-.019Z"/><g fill="#fff" opacity=".9"><path d="M99.099 121.312c-.252.902-.916 3.472-.916 5.646v.929c.026 1.316.08 2.579.161 3.544-2.183-.559-3.79.072-4.599.397-1.5.595-4.662 5.456-5.453 8.134a6.477 6.477 0 0 0-.242 1.254v.505a42.093 42.093 0 0 0 1.886-.622c4.33-1.578 10.717-4.248 12.495-7.008 0-.036.135-.153.207-.18.018-.018.099-.171.117-.189.161-.072-.135.135-.027.036 1.015-.929 3.323-5.186 3.943-8.234.467-2.3 1.545-6.71.862-14.926a38.7 38.7 0 0 0-.35-2.922 2.01 2.01 0 0 1-.171.208c-2.515 3.237-6.808 9.514-7.913 13.428Z"/><path d="M87.924 141.929v-.199a3.31 3.31 0 0 1-.018-.523c.027-.37.108-.794.252-1.29.772-2.633 3.934-7.602 5.542-8.243.773-.306 2.354-.937 4.483-.45a57.475 57.475 0 0 1-.135-3.346v-.929c-.01-2.264.691-4.924.907-5.691 1.15-4.076 5.695-10.606 7.941-13.483l.386-.487.054.352c.153.983.278 1.975.35 2.931.647 7.747-.278 12.166-.772 14.538l-.09.433c-.602 2.949-2.767 7.043-3.872 8.198-.018.063-.081.108-.116.135-.045.09-.054.108-.072.135l-.054.036-.108.082-.027.045c-1.734 2.687-7.797 5.33-12.567 7.07-.655.244-1.293.451-1.895.631l-.189.055Zm8.704-10.561c-1.293 0-2.263.388-2.82.604-1.401.559-4.554 5.285-5.354 8.036-.134.469-.215.874-.233 1.217v.289a26.475 26.475 0 0 0 1.68-.569c4.724-1.722 10.698-4.319 12.405-6.926.035-.099.152-.18.224-.225l-.027-.036.126-.117s.018-.028.027-.037l.045-.027c.961-.965 3.216-5.068 3.835-8.089l.09-.442c.494-2.354 1.411-6.746.764-14.448a42.685 42.685 0 0 0-.297-2.552c-2.245 2.895-6.701 9.316-7.833 13.311-.215.758-.907 3.391-.907 5.61v.929c.027 1.298.081 2.561.162 3.535l.018.216-.207-.054a6.947 6.947 0 0 0-1.688-.216l-.01-.009Z"/></g><path fill="#fff" d="M79.75 143.985a4.976 4.976 0 0 1-.009-.821c.036-.595.18-1.281.413-2.056 1.033-3.418 4.887-9.515 7.752-12.518"/><path fill="#fff" d="M79.588 143.994a5.298 5.298 0 0 1-.009-.848c.036-.604.18-1.308.414-2.092.997-3.319 4.778-9.425 7.788-12.581l.224.216c-2.973 3.121-6.719 9.172-7.716 12.455-.234.757-.368 1.443-.404 2.02-.018.28-.018.55 0 .803l-.306.027h.01Z"/><path fill="#fff" d="M103.716 132.522c-.431.604-.88 1.2-1.222 1.606-.108.126-.188.243-.251.315-1.851 2.363-5.345 5.547-8.615 7.666-4.374 2.841-10.024 4.834-11.92 4.221-1.168-.379-1.841-1.119-1.967-2.345"/><path fill="#fff" d="M82.58 146.591c-.36 0-.665-.036-.917-.117-1.266-.406-1.94-1.218-2.075-2.471l.306-.036c.116 1.136.71 1.839 1.86 2.209 1.859.604 7.473-1.398 11.793-4.202 3.1-2.012 6.63-5.15 8.579-7.63l.036-.045a8.91 8.91 0 0 1 .215-.271c.342-.406.8-1.001 1.213-1.596l.252.18c-.423.596-.881 1.2-1.231 1.615-.09.108-.153.198-.207.261l-.036.045c-1.967 2.507-5.524 5.682-8.65 7.702-3.89 2.525-8.677 4.356-11.138 4.356Z"/><path fill="#000" d="M103.123 133.28c-1.222 1.858-4.518 5.528-18.307 9.451-14.615 4.167-25.663 2.616-25.663-3.733 0-2.174 2.497-7.315 12.62-12.681 2.722-1.442 5.489-2.867 8.579-3.544"/><path fill="#000" d="M70.255 145.211c-4.042 0-7.248-.739-9.198-2.218-1.365-1.037-2.048-2.381-2.048-3.995 0-.623.36-6.277 12.71-12.816 3.055-1.614 5.633-2.904 8.624-3.562l.063.307c-2.946.649-5.507 1.929-8.543 3.535-9.907 5.24-12.548 10.344-12.548 12.536 0 1.515.646 2.777 1.93 3.751 3.863 2.931 12.882 2.868 23.536-.162 9.97-2.841 15.935-5.916 18.216-9.388l.261.171c-2.327 3.544-8.345 6.656-18.397 9.514-5.443 1.552-10.465 2.327-14.606 2.327Z"/><path fill="#fff" d="M103.177 133.19c-.674.721-1.357 1.091-2.893.956-2.084-.181-4.186-.938-4.716-2.841"/><path fill="#fff" d="M100.868 134.335a7.23 7.23 0 0 1-.602-.027c-2.667-.235-4.392-1.29-4.85-2.958l.296-.081c.575 2.074 3.117 2.597 4.581 2.732 1.492.136 2.129-.216 2.767-.911l.225.217c-.602.64-1.213 1.037-2.417 1.037v-.009ZM105.764 100.056c9.998-12.996 18.1-20.77 20.732-19.165 3.395 2.065-2.767 19.056-15.639 40.304l-2.65 4.257s-4.213 6.971-5.012 7.765"/><path fill="#fff" d="m103.303 133.325-.216-.226c.773-.775 4.95-7.665 4.985-7.737l2.659-4.257c10.699-17.668 17.597-34.045 16.403-38.942-.135-.56-.378-.938-.719-1.145-2.443-1.489-10.303 5.844-20.525 19.128l-.243-.19c3.926-5.104 17.031-21.572 20.93-19.2.413.252.7.703.853 1.344 1.231 5.05-5.533 21.157-16.438 39.176l-2.659 4.257c-.171.279-4.231 6.998-5.03 7.792Z"/><path fill="#fff" d="M94.392 125.199c-.413-2.841-.647-5.636-.404-6.845.539-2.597 4.123-7.846 4.123-7.846a293.325 293.325 0 0 1 7.644-10.452"/><path fill="#fff" d="M94.24 125.226c-.225-1.551-.72-5.339-.396-6.899.539-2.597 4.006-7.693 4.15-7.909a287.58 287.58 0 0 1 7.653-10.462l.243.19a284.942 284.942 0 0 0-7.645 10.443c-.035.054-3.575 5.258-4.105 7.792-.215 1.064-.072 3.535.405 6.791l-.306.045v.009Z"/><path fill="#fff" d="M95.56 131.305s-.018-.045-.018-.072c-.018-.064-.036-.136-.054-.208a63.08 63.08 0 0 1-.916-4.608l-.19-1.218"/><path fill="#fff" d="M95.416 131.35s-.018-.054-.027-.09l-.054-.199c-.314-1.271-.638-2.913-.916-4.617l-.189-1.218.306-.045.188 1.218c.279 1.695.602 3.327.907 4.59l.054.207c0 .028.01.046.018.073l-.296.09.009-.009Z"/><path fill="#fff" d="M87.897 128.581c.818-.857 1.554-1.461 2.12-1.677 1.276-.496 4.294-1.687 8.66.442 1.913.928 3.503 1.957 4.284 2.976.369.469.485 1.028.521 1.407.099 1.046-.413 1.614-.88 2.047"/><path fill="#fff" d="m102.71 133.884-.216-.225c.449-.415.916-.947.827-1.912-.036-.361-.144-.884-.485-1.326-.71-.911-2.174-1.93-4.231-2.931-4.276-2.083-7.24-.938-8.507-.451-.539.207-1.257.776-2.093 1.65l-.224-.216c.88-.92 1.616-1.506 2.173-1.723 1.33-.514 4.384-1.695 8.777.451 2.11 1.019 3.611 2.066 4.347 3.021.386.506.512 1.083.548 1.489.099 1.055-.386 1.668-.925 2.173h.009Z"/><path fill="#fff" d="m80.36 122.773.666-.135a17.35 17.35 0 0 1 3.018-.271c3.17 0 6.045 1.128 8.992 2.309 4.32 1.732 8.659 3.626 10.096 5.546.305.415.467.884.53 1.317.09.65-.045 1.091-.108 1.2"/><path fill="#fff" d="m103.689 132.811-.27-.154c.036-.072.171-.468.09-1.109a2.77 2.77 0 0 0-.494-1.244c-1.446-1.93-5.937-3.851-10.025-5.493-2.811-1.127-5.721-2.299-8.937-2.299-.997 0-1.976.09-2.992.27-.224.036-.44.081-.664.135l-.063-.306.674-.135a17.39 17.39 0 0 1 3.045-.271c3.27 0 6.341 1.236 9.054 2.318 4.132 1.659 8.669 3.598 10.16 5.591.368.496.503 1.028.557 1.389.089.713-.054 1.182-.126 1.299l-.009.009Z"/><path fill="#000" d="M69.483 103.627C66.95 88.782 74 74.876 81.717 73.343c9.603-1.903 20.975 11.093 24.604 29.211 2.057 10.254 1.527 16.197.889 20.12-.799 4.933-2.416 8.252-3.701 10.092-.278.406-.476.685-.709.947-.036.036-.144.126-.18.162-1.482 1.308-6.522.198-13.699-4.536-8.57-5.655-17.282-13.032-19.438-25.694v-.018Z"/><path fill="#fff" d="M100.796 134.524c-2.38 0-6.467-1.452-11.965-5.077-8.416-5.556-17.318-12.969-19.51-25.802-1.186-6.944-.368-14.132 2.29-20.22 2.471-5.645 6.235-9.469 10.08-10.236 9.862-1.957 21.216 11.472 24.792 29.329 2.039 10.182 1.554 16.134.898 20.174-.889 5.456-2.722 8.703-3.728 10.155l-.027.036c-.269.388-.458.658-.701.92a2.743 2.743 0 0 1-.143.126l-.054.045c-.404.352-1.051.55-1.923.55h-.009ZM69.636 103.6c2.164 12.716 11.012 20.075 19.375 25.594 7.34 4.843 12.145 5.754 13.51 4.555l.054-.045s.09-.082.117-.1c.224-.243.413-.514.674-.892l.026-.036c.998-1.425 2.803-4.627 3.674-10.02.656-4.013 1.141-9.929-.889-20.066-3.548-17.704-14.732-31.024-24.433-29.094-7.554 1.506-14.642 15.268-12.109 30.104Z"/><path fill="#fff" d="M83.334 108.001c-.89-8.009.548-21.726 7.932-22.655 5.892-.74 12.18 7.855 14.103 13.835 1.051 3.255 1.805 7.061 2.174 11.408.682 8.216-.396 12.635-.863 14.926-.62 3.048-2.928 7.305-3.943 8.234-1.06.965-4.833.866-9.18-3.581-4.806-4.924-9.522-15.845-10.223-22.167Z"/><path fill="#fff" d="M88.66 128.554c2.291-.108 4.402.415 6.576 1.037 3.18.92 6.252 2.056 7.465 3.057 1.257 1.038-2.048 4.465-12.675 8.406-8.021 2.967-18.693 2.471-18.881-1.443-.063-1.335 1.59-4.6 8.758-8.261 2.659-1.362 5.38-2.634 8.758-2.796Z"/><path fill="#fff" d="M88.068 141.721a2.364 2.364 0 0 1 0-.505c.027-.361.108-.776.243-1.254.781-2.678 3.943-7.539 5.452-8.134.961-.379 3.063-1.209 5.91.072 1.824.821 2.704 1.371 2.74 2.083.018.433-.718 1.146-.997 1.434-1.266 1.344-3.62 3.86-5.785 5.312-2.587 1.732-5.255 2.796-6.377 2.426-.692-.234-1.087-.685-1.168-1.425l-.018-.009Z"/><path fill="#fff" d="M102.88 133.622c-.458.487-1.015.722-1.931.515-1.248-.289-2.461-1.011-2.587-2.535a56.813 56.813 0 0 1-.161-3.706v-.929c-.01-2.183.646-4.753.907-5.646 1.105-3.914 5.398-10.2 7.913-13.428 7.115-9.145 12.81-13.636 14.256-12.239 1.859 1.804-3.306 14.232-12.854 29.428 0 0-3.755 6.656-5.534 8.559l-.009-.019Z"/><g fill="#fff" opacity=".9"><path d="M99.099 121.312c-.252.902-.916 3.472-.916 5.646v.929c.026 1.316.08 2.579.161 3.544-2.183-.559-3.79.072-4.599.397-1.5.595-4.662 5.456-5.453 8.134a6.477 6.477 0 0 0-.242 1.254v.505a42.093 42.093 0 0 0 1.886-.622c4.33-1.578 10.717-4.248 12.495-7.008 0-.036.135-.153.207-.18.018-.018.099-.171.117-.189.161-.072-.135.135-.027.036 1.015-.929 3.323-5.186 3.943-8.234.467-2.3 1.545-6.71.862-14.926a38.7 38.7 0 0 0-.35-2.922 2.01 2.01 0 0 1-.171.208c-2.515 3.237-6.808 9.514-7.913 13.428Z"/><path d="M87.924 141.929v-.199a3.31 3.31 0 0 1-.018-.523c.027-.37.108-.794.252-1.29.772-2.633 3.934-7.602 5.542-8.243.773-.306 2.354-.937 4.483-.45a57.475 57.475 0 0 1-.135-3.346v-.929c-.01-2.264.691-4.924.907-5.691 1.15-4.076 5.695-10.606 7.941-13.483l.386-.487.054.352c.153.983.278 1.975.35 2.931.647 7.747-.368 12.112-.862 14.484l-.153.46c-.602 2.949-2.614 7.07-3.719 8.234-.018.063-.081.108-.116.135-.045.09-.054.108-.072.135l-.054.036-.108.082-.027.045c-1.734 2.687-7.797 5.33-12.567 7.07-.655.244-1.293.451-1.895.631l-.189.055v-.009Zm8.704-10.561c-1.293 0-2.263.388-2.82.604-1.401.559-4.554 5.285-5.354 8.036-.134.469-.215.874-.233 1.217v.289a26.475 26.475 0 0 0 1.68-.569c4.724-1.722 10.698-4.319 12.405-6.926.035-.099.152-.18.224-.225l-.027-.036.126-.117s.018-.028.027-.037l.045-.027c.961-.965 3.216-5.068 3.835-8.089l.09-.442c.494-2.354 1.411-6.746.764-14.448a42.685 42.685 0 0 0-.297-2.552c-2.245 2.895-6.701 9.316-7.833 13.311-.215.758-.907 3.391-.907 5.61v.929c.027 1.298.081 2.561.162 3.535l.018.216-.207-.054a6.947 6.947 0 0 0-1.688-.216l-.01-.009Z"/></g><path fill="#fff" d="M79.588 143.994a5.298 5.298 0 0 1-.009-.848c.036-.604.18-1.308.414-2.092.997-3.319 4.778-9.425 7.788-12.581l.224.216c-2.973 3.121-6.719 9.172-7.716 12.455-.234.757-.368 1.443-.404 2.02-.018.28-.018.55 0 .803l-.306.027h.01Z"/><path fill="#fff" d="M82.58 146.591c-.36 0-.665-.036-.917-.117-1.266-.406-1.94-1.218-2.075-2.471l.306-.036c.116 1.136.71 1.839 1.86 2.209 1.859.604 7.473-1.398 11.793-4.202 3.1-2.012 6.63-5.15 8.579-7.63l.036-.045a8.91 8.91 0 0 1 .215-.271c.342-.406.8-1.001 1.213-1.596l.252.18c-.423.596-.881 1.2-1.231 1.615-.09.108-.153.198-.207.261l-.036.045c-1.967 2.507-5.524 5.682-8.65 7.702-3.89 2.525-8.677 4.356-11.138 4.356Z"/><path fill="#fff" d="M70.255 145.211c-4.042 0-7.248-.739-9.198-2.218-1.365-1.037-2.048-2.381-2.048-3.995 0-.623.36-6.277 12.71-12.816 3.055-1.614 5.633-2.904 8.624-3.562l.063.307c-2.946.649-5.507 1.929-8.543 3.535-9.907 5.24-12.548 10.344-12.548 12.536 0 1.515.646 2.777 1.93 3.751 3.863 2.931 12.882 2.868 23.536-.162 9.97-2.841 15.935-5.916 18.216-9.388l.261.171c-.629.956-1.527 1.885-2.704 2.787-.072.054-.108.135-.18.189-.062.045-.197.126-.251.171-3.198 2.309-8.228 4.374-15.253 6.377-5.443 1.551-10.465 2.326-14.606 2.326l-.008-.009Z"/><path fill="#fff" d="M100.868 134.335a7.23 7.23 0 0 1-.602-.027c-2.667-.235-4.392-1.29-4.85-2.958l.296-.081c.575 2.074 3.117 2.597 4.581 2.732 1.492.136 2.129-.216 2.767-.911l.225.217c-.602.64-1.213 1.037-2.417 1.037v-.009ZM103.303 133.325l-.216-.226c.773-.775 4.95-7.665 4.985-7.737l2.659-4.257c10.699-17.668 17.597-34.045 16.403-38.942-.135-.56-.378-.938-.719-1.145-2.443-1.489-10.303 5.844-20.525 19.128l-.243-.19c3.926-5.104 17.031-21.572 20.93-19.2.413.252.7.703.853 1.344 1.231 5.05-5.533 21.157-16.438 39.176l-2.659 4.257c-.171.279-4.231 6.998-5.03 7.792Z"/><path fill="#fff" d="M94.24 125.226c-.225-1.551-.72-5.339-.396-6.899.539-2.597 4.006-7.693 4.15-7.909a287.58 287.58 0 0 1 7.653-10.462l.243.19a284.942 284.942 0 0 0-7.645 10.443c-.035.054-3.575 5.258-4.105 7.792-.215 1.064-.072 3.535.405 6.791l-.306.045v.009Z"/><path fill="#fff" d="M95.416 131.35s-.018-.054-.027-.09l-.054-.199c-.314-1.271-.638-2.913-.916-4.617l-.189-1.218.306-.045.188 1.218c.279 1.695.602 3.327.907 4.59l.054.207c0 .028.01.046.018.073l-.296.09.009-.009Z"/><path fill="#fff" d="m102.71 133.884-.216-.225c.449-.415.916-.947.827-1.912-.036-.361-.144-.884-.485-1.326-.71-.911-2.174-1.93-4.231-2.931-4.276-2.083-7.24-.938-8.507-.451-.539.207-1.257.776-2.093 1.65l-.224-.216c.88-.92 1.616-1.506 2.173-1.723 1.33-.514 4.384-1.695 8.777.451 2.11 1.019 3.611 2.066 4.347 3.021.386.506.512 1.083.548 1.489.099 1.055-.386 1.668-.925 2.173h.009Z"/><path fill="#fff" d="m103.653 132.793-.225-.126c.036-.073.171-.469.09-1.11a2.77 2.77 0 0 0-.494-1.244c-1.446-1.93-5.937-3.851-10.025-5.493-2.811-1.127-5.721-2.299-8.937-2.299-.997 0-1.977.09-2.992.27-.224.036-.44.081-.664.136l-.063-.307.674-.135a17.39 17.39 0 0 1 3.045-.271c3.27 0 6.341 1.236 9.054 2.318 4.132 1.659 8.669 3.598 10.16 5.591.368.496.503 1.028.557 1.389.089.713-.099 1.155-.171 1.272l-.009.009Z"/><path fill="#fff" d="M100.796 134.524c-2.38 0-6.467-1.452-11.965-5.077-8.416-5.556-17.318-12.969-19.51-25.802-1.186-6.944-.368-14.132 2.29-20.22 2.471-5.645 6.235-9.469 10.08-10.236 9.862-1.957 21.216 11.472 24.792 29.329 2.039 10.182 1.554 16.134.898 20.174-.889 5.456-2.722 8.703-3.728 10.155l-.027.036c-.269.388-.458.658-.701.92a2.743 2.743 0 0 1-.143.126l-.054.045c-.404.352-1.051.55-1.923.55h-.009ZM69.636 103.6c2.164 12.716 11.012 20.075 19.375 25.594 7.34 4.843 12.145 5.754 13.51 4.555l.054-.045s.09-.082.117-.1c.224-.243.413-.514.674-.892l.026-.036c.998-1.425 2.803-4.627 3.674-10.02.656-4.013 1.141-9.929-.889-20.066-3.548-17.704-14.732-31.024-24.433-29.094-7.554 1.506-14.642 15.268-12.109 30.104ZM107.983 140.756l5.793-1.804-5.793 27.354h-5.39l5.39-25.55ZM113.318 128.184c1.977 0 3.252 1.57 2.785 3.554-.404 1.975-2.318 3.544-4.231 3.544-1.913 0-3.243-1.569-2.838-3.544.404-1.975 2.317-3.554 4.284-3.554ZM120.855 143.777h-2.785l.809-3.959h2.784l1.446-6.809 5.731-1.921-1.85 8.73h4.581l-.871 3.959h-4.581l-3.306 15.828c-.584 2.85.575 3.49 3.827 3.67l-.701 3.319c-6.315.586-9.441-2.092-8.462-6.863l3.36-15.945.018-.009ZM130.817 163.681l2.892-3.436c1.743 1.687 3.943 2.498 6.09 2.498 2.668 0 5.507-1.217 5.974-3.779.404-2.092-1.563-2.732-3.018-3.318-.701-.289-1.456-.695-2.147-.983-3.306-1.398-6.549-2.742-5.56-7.45 1.158-5.293 6.377-8.089 11.012-8.089 2.668 0 4.932.929 7.42 2.561l-2.839 3.553c-2.084-1.334-3.656-1.867-5.389-1.867-2.264 0-4.581 1.164-5.039 3.319-.234 1.046.233 1.687 1.338 2.273 1.096.577 2.605 1.226 4.051 1.804 1.446.64 2.955 1.28 4.114 2.326 1.222 1.164 2.03 2.85 1.446 5.466-1.329 5.88-7.419 8.441-12.234 8.441-3.072 0-5.848-1.217-8.111-3.319ZM156.265 158.91l3.826-17.983 5.848-1.866-3.881 18.388c-.691 3.436 1.33 5.411 4.698 5.357 1.914-.054 3.881-.865 5.336-1.686l4.518-21.302H182l-4.752 22.465c-4.401 2.796-8.92 4.483-13.905 4.483-3.943 0-8.228-2.39-7.069-7.856h-.009Z"/></g></g></g><defs><clipPath id="a"><path fill="#fff" d="M0 0h240v240H0z"/></clipPath><clipPath id="b"><path fill="#fff" d="M0 0h240v240H0z"/></clipPath><clipPath id="c"><path fill="#fff" d="M59 73h123v94H59z"/></clipPath></defs></svg>