<svg xmlns="http://www.w3.org/2000/svg" width="240" height="240" fill="none"><g clip-path="url(#a)"><path fill="#fff" d="M0 0h240v240H0z"/><g clip-path="url(#b)"><path fill="#fff" d="M0 0h240v240H0z"/><path fill="#000" d="M0 0h240v240H0z"/></g><path fill="#fff" d="M64.215 95.395C54.455 106.86 45.095 121.08 45 131.708c-.037 3.999 1.24 7.49 4.302 10.135 4.406 3.806 9.257 5.151 14.088 5.157 7.06.009 14.07-2.84 19.56-5.035 9.243-3.698 111.417-48.08 111.417-48.08.986-.494.8-1.11-.433-.802-.497.125-111.233 30.142-111.233 30.142-2.138.601-4.32.912-6.446.923-8.51.05-16.082-4.674-16.02-14.632.023-3.897 1.218-8.594 3.979-14.121Z"/></g><defs><clipPath id="a"><path fill="#fff" d="M0 0h240v240H0z"/></clipPath><clipPath id="b"><path fill="#fff" d="M0 0h240v240H0z"/></clipPath></defs></svg>