<svg xmlns="http://www.w3.org/2000/svg" width="240" height="240" fill="none"><g clip-path="url(#a)"><path fill="#fff" d="M0 0h240v240H0z"/><g clip-path="url(#b)"><path fill="#fff" d="M0 0h240v240H0z"/><path fill="#000" d="M0 0h240v240H0z"/></g><path fill="#fff" d="M192.104 101.814c.537-.614.896-1.314.896-2.192a3.523 3.523 0 0 0-.896-2.37c-.629-.616-1.43-.967-2.328-.967-.893 0-1.608.352-2.327.967-.624.615-.896 1.404-.896 2.37 0 .878.272 1.578.896 2.192.719.615 1.434.877 2.327.877.898 0 1.699-.262 2.328-.877Zm.182 32.297v-28.347h-4.836l.091 28.347h4.745Zm-11.193-26.942-.803-.352c-2.149-1.23-4.747-1.843-7.878-1.843-3.402 0-6.177.789-8.236 2.369-1.074.79-1.791 1.579-2.327 2.634-.536.964-.807 1.93-.807 3.07 0 1.931.897 3.51 2.51 4.914 1.519 1.317 3.756 2.371 6.711 3.247 2.505.79 4.206 1.58 5.28 2.371.897.878 1.435 1.842 1.435 3.07 0 1.317-.717 2.37-1.972 3.248-1.254.703-3.046 1.141-5.28 1.141-2.419 0-4.834-.614-7.341-1.757l-.627-.437-2.058 3.685.718.351c2.774 1.317 5.819 1.93 9.13 1.93 3.581 0 6.535-.702 8.861-2.281 1.164-.703 1.97-1.666 2.598-2.631.623-1.141.894-2.371.894-3.599v-.091c0-2.105-.894-3.948-2.596-5.439-1.43-1.227-3.759-2.282-6.803-3.158-2.329-.794-4.028-1.582-5.014-2.196-1.074-.792-1.521-1.667-1.521-2.633 0-1.141.447-2.017 1.435-2.807 1.072-.703 2.502-1.142 4.383-1.142 2.596 0 4.745.439 6.446 1.492l.627.439 2.235-3.595Zm-29.18 2.105c-3.312-2.808-7.428-4.299-12.176-4.299-4.654 0-8.503 1.403-11.635 4.124-3.493 3.073-5.281 7.284-5.281 12.813v22.027h4.652v-14.216c1.434 1.578 3.227 2.808 5.373 3.687 2.148.963 4.475 1.402 6.984 1.402 4.743 0 8.771-1.402 12.083-4.389 3.403-2.896 5.101-6.405 5.101-10.531 0-4.212-1.698-7.721-5.101-10.618Zm-12.176-.352c3.493 0 6.535 1.055 8.862 3.159 2.418 2.107 3.672 4.738 3.672 7.901 0 2.981-1.076 5.439-3.224 7.545-2.326 2.194-5.459 3.336-9.218 3.336-3.763 0-6.807-1.141-9.223-3.336-2.236-2.192-3.309-4.65-3.309-7.545 0-2.898 1.074-5.442 3.309-7.55 2.33-2.28 5.374-3.51 9.131-3.51Zm-24.347 1.758c-3.131-3.863-7.607-5.706-13.606-5.706-4.476 0-8.328 1.229-11.638 3.86-3.579 2.721-5.369 6.409-5.369 10.971 0 2.545.715 5.09 2.236 7.459 1.345 2.281 3.403 4.126 6.178 5.528 2.774 1.318 5.728 1.931 8.95 1.931 3.044 0 5.908-.613 8.685-1.931 2.772-1.402 4.832-3.247 6.174-5.528l.896-1.492h-5.19c-1.076 1.492-2.6 2.722-4.566 3.686-1.969.965-4.117 1.405-6.177 1.405-2.864 0-5.281-.705-7.43-2.108-2.149-1.492-3.58-3.334-4.476-5.792 2.952-1.141 5.908-1.756 9.132-1.756l4.834.526 7.518.703c2.327 0 4.299-.351 6.087-.877.717-.264 1.163-.615 1.344-1.054.267-.351.267-.963.091-1.668-.54-3.157-1.703-5.876-3.673-8.157Zm-1.251 7.198.089.173-2.597.351-5.639-.525-7.878-.617h-1.343c-2.507.176-4.833.617-7.072 1.405.357-3.249 1.97-5.795 4.656-7.636 2.236-1.406 4.745-2.195 7.429-2.195 4.205 0 7.429 1.317 9.847 3.95 1.254 1.581 2.147 3.247 2.508 5.094Zm-50.221-12.904c-4.565 0-8.504 1.403-11.637 4.124-3.491 3.073-5.192 7.284-5.192 12.812L47 143.937h4.834l-.09-14.216c1.432 1.579 3.222 2.808 5.282 3.687 2.237.964 4.565 1.401 7.071 1.401 4.745 0 8.773-1.401 12.086-4.387 3.4-2.896 5.011-6.407 5.011-10.532 0-4.213-1.61-7.722-4.923-10.618-3.401-2.807-7.43-4.298-12.353-4.298Zm-9.13 7.459c2.417-2.281 5.372-3.511 9.13-3.511 3.582 0 6.536 1.055 8.95 3.159 2.42 2.107 3.58 4.738 3.58 7.901 0 2.981-1.072 5.439-3.133 7.545-2.325 2.194-5.369 3.336-9.307 3.336-3.67 0-6.803-1.141-9.22-3.336-2.15-2.192-3.223-4.65-3.223-7.545 0-2.898 1.074-5.441 3.223-7.549Z"/></g><defs><clipPath id="a"><path fill="#fff" d="M0 0h240v240H0z"/></clipPath><clipPath id="b"><path fill="#fff" d="M0 0h240v240H0z"/></clipPath></defs></svg>