<svg xmlns="http://www.w3.org/2000/svg" width="240" height="240" fill="none"><g clip-path="url(#a)"><path fill="#fff" d="M0 0h240v240H0z"/><path fill="#000" d="M0 0h240v240H0z"/><g fill="#fff" clip-path="url(#b)"><path d="M201.273 127.125 215.001 139v-9.5l-10.976-9.495 10.976-9.505V101l-19.182 16.612v-4.737L182.091 101v9.5l10.976 9.495-10.976 9.505v9.5l19.182-16.611v4.736ZM45.089 116.96l-6.16-1.188c-3.431-.665-4.936-1.472-4.936-3.372 0-2.66 2.962-4.038 6.676-4.038 3.903 0 7.382 1.52 8.134 4.75h6.582c-.752-6.174-6.253-10.212-14.716-10.212-7.804 0-13.963 3.468-13.963 9.738 0 5.462 4.607 8.217 10.766 9.405l6.16 1.187c3.431.665 5.17 1.758 5.17 3.895 0 2.897-3.196 4.513-7.145 4.513-4.843 0-8.087-2.375-8.84-5.938h-6.816c.987 7.125 6.535 11.4 15.656 11.4 8.133 0 14.433-3.325 14.433-10.213 0-6.08-4.842-8.74-11.001-9.927ZM71.746 106.938v-3.563H64.93v2.613c0 3.087-1.41 4.512-4.466 4.512h-1.928v5.225h5.407v12.825c0 5.7 2.774 8.075 9.356 8.075h5.594V131.4H73.91c-2.35 0-3.15-.712-3.15-2.85v-12.825h8.133V110.5H68.784l2.962-3.562ZM130.703 131.875c-4.936 0-8.086-3.515-8.086-8.265s3.15-8.265 8.086-8.265c3.808 0 6.535 2.138 7.24 4.75h6.724c-1.223-6.175-6.535-9.975-13.964-9.975-8.886 0-15.045 5.415-15.045 13.49s6.159 13.49 15.045 13.49c7.429 0 13.258-3.8 14.199-10.212h-6.723c-.706 2.375-3.244 4.987-7.476 4.987ZM96.852 110.12c-9.168 0-15.045 5.415-15.045 13.49s5.877 13.49 15.045 13.49 15.045-5.415 15.045-13.49-5.877-13.49-15.045-13.49Zm0 21.755c-4.936 0-8.086-3.515-8.086-8.265s3.15-8.265 8.086-8.265c4.937 0 8.087 3.515 8.087 8.265s-3.15 8.265-8.087 8.265ZM162.485 122.755l14.152-12.255h-9.168l-11.566 10.26v-17.385h-6.817v33.25h6.817v-8.17l4.088-3.54 9.923 11.71h8.65l-11.753-13.87h-4.326Z"/></g></g><defs><clipPath id="a"><path fill="#fff" d="M0 0h240v240H0z"/></clipPath><clipPath id="b"><path fill="#fff" d="M26 101h189v38H26z"/></clipPath></defs></svg>