<svg xmlns="http://www.w3.org/2000/svg" width="240" height="240" fill="none"><g clip-path="url(#a)"><path fill="#fff" d="M0 0h240v240H0z"/><g clip-path="url(#b)"><path fill="#fff" d="M0 0h240v240H0z"/><path fill="#000" d="M0 0h240v240H0z"/></g><path fill="#fff" fill-rule="evenodd" d="M123.212 105.838v27.143c-.31 1.392 2.164 1.16 1.39 2.628-1.005 1.238-3.015.618-4.561.851-1.393-.233-3.557.464-3.944-1.159-.154-1.238 1.393-1.161 1.238-2.32v-13.378c-.232.927-.155 2.242-1.161 2.706a1.82 1.82 0 0 1-1.623-.618c-.387-.464-.233-1.547-.773-1.625-1.857.31-2.784 2.32-3.248 3.79-.541 3.015-.232 6.574-.232 9.82.232.851 1.778.697 1.082 1.857-.31.462-1.005.771-1.005.771s-1.314.078-3.403.078c-2.166 0-3.248-.078-3.248-.078-.31-.077-.773-.541-.773-.926-.31-.464.154-.928.464-1.082.31 0 .697-.542.773-.851v-13.379c-.077-1.16-1.933-.927-1.468-2.087 1.623-1.469 3.943-1.469 5.722-2.629.464.077 1.004-.077 1.391.232.619.85.078 2.243.465 3.248h.232c1.083-1.392 2.397-3.48 4.486-3.403.541.077 1.932 0 2.32.928 0-2.783.309-6.495-1.392-7.965 0-1.933 4.176-1.701 5.491-3.247.539-.232 1.7-.232 1.777.695Zm47.479-.774.154 3.789.077 23.353c.31.464 1.006.154 1.161.696.233 1.161-.618 1.547-1.469 1.934-1.78.618-3.402 1.467-5.336 1.545-.851-.233.233-1.081-.618-1.468-.851 1.006-2.167 2.087-3.48 1.545-2.63-.233-4.099-2.474-4.796-4.639-1.003-5.259-.541-11.136 2.476-15.233.851-1.006 2.011-1.393 3.246-1.547.851.154 1.625.618 2.321 1.083l.233-.386.077-6.187c-.542-.774-2.244-1.083-1.47-2.397.542-.309 1.006-.077 1.779-.387 1.547-.696 3.17-1.392 4.718-2.165.463-.153.772.156.927.464Zm-7.656 13.533c-.233-.386-.619-.077-.851.233-1.391 3.712-2.01 9.202.464 12.604.387.387.928.154 1.238-.31 1.16-2.782 1.16-6.184.618-9.279-.309-1.161-.464-2.397-1.469-3.248Z" clip-rule="evenodd"/><path fill="#fff" fill-rule="evenodd" d="m44.955 105.22 1.701 7.656c.155.85-.31 1.469-1.005 1.778-.697.31-1.392-.154-1.934-.541-1.16-1.778-1.392-4.099-3.247-5.49-.541-.077-1.006 0-1.083.541l.077 24.204c.233.696.929 1.392 1.624 1.469.619-.077 1.237-.928 1.237-1.238V120.22c-.077-.772-2.242-1.004-1.624-1.855 2.011-.928 4.099-1.624 6.032-2.629.54-.077 1.392 0 1.546.618l.077 17.244c-.077.928 1.161.774 1.393 1.625.31-.697 1.16-.851 1.237-1.625v-13.145c0-1.082-2.088-1.237-1.469-2.087l5.567-2.552c.619-.309 1.624-.309 1.857.464 0 .541-.077.928.154 1.392.85.387.85-.774 1.392-1.082 1.16-1.16 3.171-1.16 4.562-.619 1.161.155 1.238 1.778 2.32 1.701.542-.695.852-1.468 1.702-1.778 1.392-.154 2.86-.231 3.943.619 2.475 2.474 2.475 6.031 2.861 9.356.309 2.862.541 5.567.85 8.507.154.464.387.233.774.464v-24.36c0-1.624-1.547-1.624-1.315-2.707 1.47-1.778 4.099-1.547 5.8-2.939.618 0 1.238.232 1.469.774V116.2c.618.617.927-.387 1.624-.619 1.7-.541 3.325.309 4.33 1.393 2.01 2.165 2.397 4.948 2.86 7.733h.078c.464-3.404 1.16-7.579 4.794-8.894 1.624-.619 3.635-.619 5.104.464 2.165 1.856 3.634 5.103 2.939 8.043-2.63 1.236-5.182 2.241-7.347 3.247.232 1.315.619 2.782 1.857 3.556.85.387 2.088.928 2.86.077.386-.696.155-1.931 1.083-2.009.696 0 1.468.077 1.778.773.851 1.623.31 3.48-.696 4.872-1.701 1.854-4.717 2.01-7.113 1.39-3.635-1.158-4.563-5.103-5.182-8.35-.154 3.402-.772 7.346-4.253 8.582-2.088.541-4.871.077-5.8-1.236-.31-.387-.232-1.083-.928-1.083-1.16 0-1.005 2.164-2.475 2.319-.696.232-1.16-.387-1.392-.772-.154.385-.31.462-.928.616.077 0-5.877.078-6.418-.077-.542-.077-.542-.387-.697-.618-.386-1.081 1.005-.539 1.082-1.468.233-4.253-.154-8.352-.696-12.373-.154-.928-.464-1.625-1.237-2.011-.619-.309-1.237.541-1.314.928l-.077 12.915c-.078 1.238 1.933.928 1.082 2.241-1.7.851-4.562.387-6.65.387-.308-.077-.54-.077-.772-.154-.387-.077-.542-1.003-.233-1.159.85-.077 1.16-.928 1.314-1.625.077-3.943.077-12.605-.154-13.223-.155-.541-.85-.773-1.392-.617-.697.231-1.083.385-1.315 1.468l.078 12.759c-.233 1.006 1.7.851 1.005 2.011l-.619.462c-2.242.31-4.717.233-7.036.077-.387-.232-.928-.539-.928-1.158-.155.464-.232.771-.696 1.003-2.63.154-4.563.387-7.27.077-.154-.154-.464-.23-.618-.462-1.16.926-2.939.539-4.486.616-2.087 0-3.634.31-5.335-.384-.387-.233-.387-.697-.31-1.006.774-.232 1.16-.696 1.47-1.469v-23.969c-.078-.697-.542-.619-.696-.85-.774-.077-1.392.618-1.702 1.237-1.391 1.624-1.005 5.413-4.098 4.871-.387-.309-.774-.541-.928-1.005.31-3.093 1.005-5.723 1.624-8.583.232-.232.464-.696.928-.619.464-.077.928.233 1.16.619 4.176.154 9.357.154 13.92 0 .467-.851 2.169-1.238 2.323.077Zm51.5 12.913c-.618-.387-1.469.387-1.623.85-.31 1.856-.464 4.332.464 6.109.695-.233 1.547-.539 2.242-1.003.928-1.006 1.006-2.244.155-3.869l-1.237-2.087Zm-13.145.309c-.54 0-1.392 2.552-1.7 3.944-.31 3.17-.465 6.728 1.314 9.28.464.464.85-.31 1.082-.542 1.778-3.092 1.47-7.267.541-10.671-.231-.773-.31-2.011-1.237-2.011Zm70.137-.231c1.547 3.324 1.779 7.268 2.089 11.058.154 1.7-.387 4.562 1.313 5.567.233.233.154.772-.077 1.083l-.617.307c-2.166.155-4.486.387-6.882-.232-.31-.233-.387-.695-.233-1.004 1.932-.928 1.006-4.022 1.161-5.722-.541-3.172-.928-6.418-2.397-9.281-.155-.232-.465-.386-.851-.309l-.542.541.155 13.147c.077.618.232 1.392 1.005 1.469.31.387.077.851-.077 1.159-2.166.618-4.717.541-6.883.387-.464-.155-.851-.462-1.005-.849-.616.616-1.236.849-2.241.926-1.702.077-2.63-.851-3.711-1.623a15.796 15.796 0 0 1-2.243 1.39c-1.625.851-3.634.31-5.103-.464-2.089-1.159-2.398-3.402-2.476-5.565-.155-3.172 2.707-5.415 5.258-6.651.774-.31 2.321-.387 2.63-1.315.078-1.238.078-3.016-1.16-3.943-.774 0-1.625-.31-2.396 0-.619.85.772.695 1.003 1.468.155.696-.077 1.624-.462 2.165-.774.929-2.166.697-3.248.542-.619-.387-.929-.929-1.238-1.547-.155-1.16-.155-2.397.541-3.248 2.011-2.319 5.49-2.088 8.274-1.778 1.468 0 2.938 1.237 3.403 2.552 1.238 4.409 1.315 9.048 1.546 13.765.387 1.625 1.238-.31 1.623 1.238l.233 1.392c.773 0 .928-.774 1.16-1.238l-.077-13.379c-.154-1.081-2.01-1.081-1.39-2.242 1.545-1.161 3.556-1.547 5.258-2.552.695-.154 1.391 0 1.545.618.233.233-.154.773.31.929.696-.851 1.315-1.624 2.397-1.779 2.083-.076 3.554 1.317 4.405 3.018Zm-21.73 6.958c-.928.233-1.546.851-2.089 1.779-.464 1.78-.696 5.568.929 6.032.618.232 1.315.077 1.624-.387.233-2.321.155-4.949-.232-7.115l-.232-.309Zm77.173 4.642c-1.16 1.623-2.243 2.86-3.866 3.943-7.502-.232-14.616-2.166-22.038-2.475l-.618-.697c8.737-2.009 17.784 1.084 26.522-.771Zm-8.892 4.329 4.098.31c-4.407 3.247-11.909 3.324-16.703.619-1.315-.851-2.707-1.857-3.79-2.94 5.723.155 10.905 1.47 16.395 2.011Zm11.289-25.982c0-1.083.851-1.857 1.857-1.857 1.005 0 1.856.774 1.856 1.857 0 1.005-.851 1.778-1.856 1.778-1.006 0-1.857-.773-1.857-1.778Zm1.857 1.469c.851 0 1.469-.618 1.469-1.469 0-.928-.618-1.547-1.469-1.547-.851 0-1.47.619-1.47 1.547-.001.851.619 1.469 1.47 1.469Zm-.387-.464h-.31v-2.088h.774c.541 0 .774.155.774.619 0 .387-.233.541-.542.541l.619.928h-.387l-.541-.928h-.387v.928Zm.387-1.16c.232 0 .541 0 .541-.386 0-.232-.233-.309-.464-.309h-.464v.695h.387Zm-56.373-.309c0-1.083.851-1.857 1.856-1.857 1.006 0 1.857.774 1.857 1.857 0 1.082-.851 1.856-1.857 1.856-1.005 0-1.856-.774-1.856-1.856Zm1.856 1.546c.851 0 1.47-.618 1.47-1.546 0-.85-.619-1.547-1.47-1.547s-1.469.697-1.469 1.547c0 .928.618 1.546 1.469 1.546Zm-.387-.464h-.309v-2.165h.773c.542 0 .774.233.774.619 0 .385-.232.541-.541.618l.618.928h-.387l-.541-.928h-.387v.928Zm.387-1.237c.31 0 .541 0 .541-.309 0-.233-.232-.31-.464-.31h-.464v.618l.387.001Z" clip-rule="evenodd"/><path fill="#fff" fill-rule="evenodd" d="M194.816 103.519c.928 1.546 1.625 3.247 2.553 4.794l.697-.077c-.387-1.547-1.161-3.093-1.857-4.64 2.321-.773 2.167 2.242 3.249 3.325 1.159-.233 2.241-1.16 3.402-1.624.387 0 .541.387.774.541l-3.094 2.629c0 .929.464 1.857.851 2.707l3.481-4.639c.387.077.618.541.926.697-.539.85-1.08 1.468-1.544 2.396l.232.155c1.545.464 4.33-1.006 4.794 1.391l-3.481.31-1.544 2.629c2.164.309 3.788-1.161 5.645-1.778l.774 1.392c-2.244 1.005-4.641 1.856-7.192 2.319-.387.542-.619 1.161-1.006 1.701 2.86-.618 5.8-1.392 8.739-2.165 1.313 4.33.539 9.358-1.625 12.991l-.928.541c-9.046 1.778-17.863-1.16-26.833.619-3.094-4.254-4.097-10.827-1.933-15.776l3.558-.154v-.31c-.312-1.237-3.094-2.475-1.161-3.789 1.314 1.006 2.396 2.552 3.48 3.712.464 0 .928.077 1.238-.077l-3.869-4.486c.312-.696 1.083-1.082 1.625-1.624l3.249.696c.154-.928.077-1.778.077-2.783.697-.465 1.468-.619 2.164-.929l1.857 3.712 2.397-4.407.305.001Zm0 3.17-1.545 3.402c.078 1.161.465 2.321.929 3.249 1.777-.464 1.313-2.552 1.777-3.867l-1.161-2.784Zm-5.104.155c.154.618-.541 2.242.774 1.855l-.774-1.855Zm-4.329 2.088 2.476 2.552c.077-.619.077-1.237.154-1.857-.851-.231-1.702-.541-2.63-.695Zm12.836 1.315.155.232c.154-.155.386-.31.386-.541-.231-.001-.385.153-.541.309Zm-8.352.231v2.861l1.238-2.475c-.387-.309-.851-.309-1.238-.386Zm14.075 1.082c-.464.077-.851.154-1.006.154l-1.624 2.475c.309 0 .851.077 1.082.077l1.548-2.706Zm-6.651 2.011.154 3.093c.851-1.47 3.247-2.707 2.244-4.794-.928.541-1.624 1.005-2.398 1.701Zm-4.485 2.63-.774-3.016-.618 1.469 1.392 1.547Zm2.551-1.702c-1.08-.155-1.005 1.856-.077 1.933l.077-1.933Zm-9.279.387-1.392 1.701 2.321 1.005 2.473-1.778c-.386-1.625-2.318-.619-3.402-.928Zm-5.335.309 1.392.696c.774.541.851-.386 1.236-.773-.849.077-1.777-.078-2.628.077Zm11.058 2.707-.928-.928c-1.47.772-2.706 2.706-4.331 3.246h-1.933a4.816 4.816 0 0 0 .928-1.391 7.73 7.73 0 0 0-2.01-.697c-.464.619-1.16 1.701-1.625 2.087h-1.005c0 1.78.077 3.869.928 5.413 3.866.077 8.196.619 12.218 1.083v-6.031l-.774-1.159c-.618.386-1.392.618-2.243.695a23.638 23.638 0 0 1-3.324 0l4.099-2.318Zm-10.749-.928-.154 1.856c.387-.464.774-.928.928-1.469l-.774-.387Zm29.076 1.392a4.785 4.785 0 0 0-.232-.541c-.387.154-.928.232-1.547.387l1.238 2.319-2.011-.077c-.154-.233-.232-.541-.464-.928-.077-.155-.464-.928-.387-.928-.618.233-1.854.386-2.551.542.155.541.31.85.464 1.314h-1.624c-.233-.387-.387-.619-.619-1.004-1.856.54-3.634 1.081-5.49 1.623.077 2.089.154 4.408.619 6.187 3.323.541 6.882.928 10.361.851 1.857-2.787 2.938-6.266 2.243-9.745Zm-8.894-2.011c-.309 0-.618-.077-1.003 0l-1.315 2.165c.464-.078.926-.154 1.236-.309l1.082-1.856Z" clip-rule="evenodd"/></g><defs><clipPath id="a"><path fill="#fff" d="M0 0h240v240H0z"/></clipPath><clipPath id="b"><path fill="#fff" d="M0 0h240v240H0z"/></clipPath></defs></svg>