<svg xmlns="http://www.w3.org/2000/svg" width="240" height="240" fill="none"><g clip-path="url(#a)"><path fill="#fff" d="M0 0h240v240H0z"/><g clip-path="url(#b)"><path fill="#fff" d="M0 0h240v240H0z"/><path fill="#000" d="M0 0h240v240H0z"/><g clip-path="url(#c)"><path fill="#fff" fill-rule="evenodd" d="M206.972 100.984c.191.735-.648 1.441-1.085 1.981-3.663 4.499-7.726 9.822-12.606 13.24.352 1.789.165 4.165-.472 5.477 1.278 1.597 2.635 3.109 3.426 5.176-1.041 5.4-3.455 9.589-7.315 12.327-3.768 2.67-8.858 3.723-14.633 5.022-11.167 2.517-29.54 4.999-37.824-1.523-8.97 5.145-27.097 5.824-35.487-.305-5.964 7.381-29.49 6.733-25.99-7.913-4.364 3.231-10.816 7.684-16.97 10.199-7.138 2.912-20.654 2.584-19.303-7.306.163-1.178.672-1.844 1.246-2.893-2.088-3.562-3.407-6.034-4.67-9.132-1.209-2.97-3.053-6.35-3.27-10.499-.452-8.825 6.584-14.42 13.548-17.048 3.553-1.34 6.44-3.283 9.96-4.257 5.26-1.465 9.768 1.364 10.116 6.087 6.115-1.774 13.562-3.732 21.637-2.586 6.43-4.89 18.987-1.87 27.239.453 1.866.526 4.377 1.886 5.76 1.828 1.17-.046 3.283-1.599 4.51-2.13 5.791-2.512 13.361-5.185 21.637-3.806 1.568.258 3.001 1.07 4.668 1.215 1.133.102 2.517-.245 3.736-.3 19.343-.925 35.445 4.151 52.142 6.693Zm-54.163-.605c-1.976.231-3.378 2.345-4.67 3.043.094-.01.183-.025.153-.154.236-1.038.689-1.865.779-3.042-10.358-3.567-20.44 1.647-27.858 5.63-5.935 3.182-11.228 6.923-14.944 10.651 1.343-2.237 2.768-4.451 4.359-6.541 1.612-2.124 3.408-4.045 4.827-5.935-3.103-.794-6.213-1.633-9.344-2.285-4.447-.926-10.633-2.459-14.318-.455-1.066.579-1.939 2.004-2.957 2.131-.844.106-2.232-.496-3.27-.607-3.803-.415-7.303-.07-10.74.607-3.219.631-10.024 1.749-10.897 4.715-.559 1.906.688 3.751.468 5.636-.213 1.851-2.034 4.304-2.958 5.782-1.13 1.812-2.28 3.417-4.204 4.26-1.164-5.67.103-10.713 1.092-15.521.61-2.965 1.838-5.998.78-8.982-2.969-.403-5.468 1.894-8.408 3.042-5.52 2.16-11.67 4.129-12.45 10.35-.44 3.504.906 5.732 1.868 8.22a59.659 59.659 0 0 0 7.629 14.001c-.826 1.481-2.767 1.867-2.961 3.954.879 1.215 2.707 1.377 4.514 1.371 5.223-.012 9.505-2.58 13.385-4.717 8.447-4.648 14.122-11.801 20.082-18.567 1.046-1.19 1.907-2.622 3.27-3.348 1.337 6.012-1.265 9.227-3.117 14.152-.714 1.898-2.965 7.838-1.868 10.652 1.203 3.095 11.45 3.23 14.165 1.222 1.369-1.012 1.913-3.297 2.649-4.719.938-1.828 1.75-3.406 2.489-5.022.041 6.667 5.107 8.625 10.583 10.044 11.64 3.009 23.379-2.366 29.73-6.084-.794 4.939 1.168 5.434 5.138 6.239 10.264 2.071 20.601-.319 28.95-2.286 7.655-1.801 13.809-3.074 14.944-10.503-1.225-1.035-4.287-.906-6.381-.605-6.174.883-12.152 3.934-20.391 3.346-1.504-.106-4.75-.619-4.984-1.52-.362-1.404 2.21-2.388 4.365-2.739 6.174-1.022 15.101.01 20.074-1.832 2.387-.879 5.268-3.421 4.979-6.237-.189-1.901-2.728-2.896-5.136-3.041-6.812-.417-11.68 3.471-18.828 2.129.893-1.103 1.054-2.922 2.175-3.803 5.229-.108 10.307.906 15.255.607 6.878-.42 10.755-3.253 14.009-7 .349-.405 1.222-.839.934-1.52-11.947-1.778-28.232-6.486-42.961-4.719Zm-23.66 11.714c-.767 3.413-2.37 7.321-3.268 11.108 4.947.07 10.165-.918 15.252-1.216.688-.899 1.027-2.141 1.402-3.348 1.021 1.411 1.738 4.053.779 6.086-7.726-.106-13.279 6.081-20.857 6.087-3.394.004-6.278-1.904-4.672-5.632 2.269-5.255 7.897-8.927 11.364-13.085Zm18.056-5.632c1.455 1.622 4.64 1.553 6.536 2.743-2.558.642-5.779.638-8.095 1.518.546-1.397 1.036-2.845 1.559-4.261Z" clip-rule="evenodd"/></g></g></g><defs><clipPath id="a"><path fill="#fff" d="M0 0h240v240H0z"/></clipPath><clipPath id="b"><path fill="#fff" d="M0 0h240v240H0z"/></clipPath><clipPath id="c"><path fill="#fff" d="M32 93h175v54H32z"/></clipPath></defs></svg>